<svg xmlns="http://www.w3.org/2000/svg" xmlns:xlink="http://www.w3.org/1999/xlink" width="500" zoomAndPan="magnify" viewBox="0 0 375 374.999991" height="500" preserveAspectRatio="xMidYMid meet" version="1.0"><defs><g/><clipPath id="ed0fefdfc9"><path d="M 256.984375 225.609375 L 268.234375 225.609375 L 268.234375 236.859375 L 256.984375 236.859375 Z M 256.984375 225.609375 " clip-rule="nonzero"/></clipPath><clipPath id="19103200f1"><path d="M 122.636719 225.609375 L 133.886719 225.609375 L 133.886719 236.859375 L 122.636719 236.859375 Z M 122.636719 225.609375 " clip-rule="nonzero"/></clipPath><clipPath id="a9f583cedd"><path d="M 222 160 L 242 160 L 242 191 L 222 191 Z M 222 160 " clip-rule="nonzero"/></clipPath><clipPath id="4c3b0d5628"><path d="M 234.832031 160.488281 L 241.527344 163.488281 L 229.503906 190.34375 L 222.808594 187.347656 Z M 234.832031 160.488281 " clip-rule="nonzero"/></clipPath><clipPath id="023582231a"><path d="M 104.5625 168.074219 L 133.988281 168.074219 L 133.988281 175.414062 L 104.5625 175.414062 Z M 104.5625 168.074219 " clip-rule="nonzero"/></clipPath></defs><rect x="-37.5" width="450" fill="#ffffff" y="-37.499999" height="449.999989" fill-opacity="1"/><rect x="-37.5" width="450" fill="#000000" y="-37.499999" height="449.999989" fill-opacity="1"/><g fill="#ffffff" fill-opacity="1"><g transform="translate(94.071042, 238.131323)"><g><path d="M 0.390625 -0.046875 L 11.796875 0 L 15.140625 -3.296875 L 15.375 -9.34375 L 10.84375 -13.078125 L 0.734375 -12.984375 Z M 4.359375 -4.109375 L 4.515625 -10.03125 L 9.078125 -10.1875 L 10.84375 -8.703125 L 10.78125 -5.125 L 9 -3.953125 Z M 4.359375 -4.109375 "/></g></g></g><g fill="#ffffff" fill-opacity="1"><g transform="translate(109.840237, 238.131323)"><g><path d="M 4.4375 -7.65625 L 4.4375 -9.875 L 14.03125 -9.78125 L 14.03125 -13.234375 L 0.390625 -13.4375 L 0.53125 -0.046875 L 13.65625 0.046875 L 13.53125 -3.203125 L 4.53125 -3.4375 L 4.578125 -5.8125 L 11.96875 -5.703125 L 12.078125 -7.515625 Z M 4.4375 -7.65625 "/></g></g></g><g fill="#ffffff" fill-opacity="1"><g transform="translate(124.254422, 238.131323)"><g><path d="M 4.4375 -7.65625 L 4.4375 -9.875 L 14.03125 -9.78125 L 14.03125 -13.234375 L 0.390625 -13.4375 L 0.53125 -0.046875 L 13.65625 0.046875 L 13.53125 -3.203125 L 4.53125 -3.4375 L 4.578125 -5.8125 L 11.96875 -5.703125 L 12.078125 -7.515625 Z M 4.4375 -7.65625 "/></g></g></g><g fill="#ffffff" fill-opacity="1"><g transform="translate(138.668605, 238.131323)"><g><path d="M 4.125 -4.65625 L 13.140625 -5.1875 L 13.046875 -13.625 L 0.390625 -12.90625 L 0.9375 0 L 4.484375 -0.078125 Z M 9.578125 -7.859375 L 4.046875 -7.625 L 3.8125 -10.59375 L 9.421875 -10.828125 Z M 9.578125 -7.859375 "/></g></g></g><g fill="#ffffff" fill-opacity="1"><g transform="translate(152.199084, 238.131323)"><g><path d="M 14.03125 -0.046875 L 14.109375 -13.53125 L 0.890625 -13.96875 L 0.390625 -0.046875 L 4.65625 0 L 4.875 -6.046875 L 10.265625 -5.9375 L 10.3125 -0.015625 Z M 10.296875 -11.140625 L 10.375 -8.609375 L 4.71875 -8.796875 L 4.765625 -11.359375 Z M 10.296875 -11.140625 "/></g></g></g><g fill="#ffffff" fill-opacity="1"><g transform="translate(166.691821, 238.131323)"><g><path d="M 4.578125 -13.046875 L 0.390625 -12.8125 L 0.90625 0 L 4.765625 0 L 4.671875 -3.921875 L 6.5 -5.453125 L 9.6875 0 L 14.125 -0.015625 L 9.390625 -7.625 L 15.453125 -13.28125 L 11.40625 -13.25 L 4.71875 -7.390625 Z M 4.578125 -13.046875 "/></g></g></g><g fill="#ffffff" fill-opacity="1"><g transform="translate(182.539566, 238.131323)"><g/></g></g><g fill="#ffffff" fill-opacity="1"><g transform="translate(192.869074, 238.131323)"><g><path d="M 0.390625 -12.859375 L 0.828125 -4.484375 L 9.609375 -4.84375 L 9.625 -2.921875 L 0.9375 -2.625 L 1.125 0.09375 L 13.15625 -0.140625 L 12.734375 -8.1875 L 4.21875 -7.78125 L 4.078125 -9.625 L 12.703125 -10.09375 L 12.390625 -13.625 Z M 0.390625 -12.859375 "/></g></g></g><g fill="#ffffff" fill-opacity="1"><g transform="translate(206.419189, 238.131323)"><g><path d="M 4.8125 -4.5 L 4.6875 -13.0625 L 0.390625 -13.140625 L 0.625 -0.09375 L 14.53125 0.046875 L 14.3125 -13.140625 L 9.9375 -13.0625 L 10.15625 -4.421875 Z M 4.8125 -4.5 "/></g></g></g><g fill="#ffffff" fill-opacity="1"><g transform="translate(221.343956, 238.131323)"><g><path d="M 13.375 -9.234375 L 13.578125 -13.0625 L 0.390625 -13.21875 L 0.390625 -9.828125 L 5.046875 -9.640625 L 5.28125 0.078125 L 9.140625 -0.046875 L 8.84375 -9.5 Z M 13.375 -9.234375 "/></g></g></g><g fill="#ffffff" fill-opacity="1"><g transform="translate(235.306466, 238.131323)"><g><path d="M 4.25 -7.78125 L 4.046875 -13.09375 L 0.390625 -13 L 0.390625 0.0625 L 4.796875 0.0625 L 4.796875 -5.703125 L 10.5625 -5.703125 L 10.640625 -0.140625 L 15.078125 -0.0625 L 15 -13.09375 L 10.5625 -13 L 10.5625 -7.65625 Z M 4.25 -7.78125 "/></g></g></g><g fill="#ffffff" fill-opacity="1"><g transform="translate(250.781096, 238.131323)"><g><path d="M 14.03125 -0.046875 L 14.109375 -13.53125 L 0.890625 -13.96875 L 0.390625 -0.046875 L 4.65625 0 L 4.875 -6.046875 L 10.265625 -5.9375 L 10.3125 -0.015625 Z M 10.296875 -11.140625 L 10.375 -8.609375 L 4.71875 -8.796875 L 4.765625 -11.359375 Z M 10.296875 -11.140625 "/></g></g></g><g fill="#ffffff" fill-opacity="1"><g transform="translate(265.273833, 238.131323)"><g><path d="M 0.390625 -13.53125 L 0.78125 0.09375 L 4.21875 0 L 4.328125 -6.203125 L 6.0625 -6.171875 L 10.84375 0.171875 L 15.265625 0.09375 L 10.34375 -6.25 L 13.4375 -6.296875 L 13.65625 -13.765625 Z M 8.453125 -8.5 L 4.140625 -8.484375 L 4.140625 -10.828125 L 8.359375 -10.859375 Z M 8.453125 -8.5 "/></g></g></g><g fill="#ffffff" fill-opacity="1"><g transform="translate(106.222819, 210.083629)"><g><path d="M 2.171875 -0.21875 L 65.4375 0 L 83.9375 -18.296875 L 85.25 -51.828125 L 60.09375 -72.515625 L 4.03125 -71.96875 Z M 24.171875 -22.75 L 25.046875 -55.640625 L 50.296875 -56.5 L 60.09375 -48.234375 L 59.765625 -28.421875 L 49.859375 -21.890625 Z M 24.171875 -22.75 "/></g></g></g><g fill="#ffffff" fill-opacity="1"><g transform="translate(193.643097, 210.083629)"><g><path d="M 2.171875 -71.3125 L 4.578125 -24.828125 L 53.234375 -26.890625 L 53.34375 -16.21875 L 5.21875 -14.59375 L 6.203125 0.546875 L 72.953125 -0.765625 L 70.546875 -45.40625 L 23.40625 -43.109375 L 22.640625 -53.34375 L 70.4375 -55.96875 L 68.703125 -75.5625 Z M 2.171875 -71.3125 "/></g></g></g><g clip-path="url(#ed0fefdfc9)"><path fill="#ffffff" d="M 268.339844 231.285156 C 264.082031 232.070312 263.445312 232.707031 262.664062 236.964844 C 261.878906 232.707031 261.242188 232.070312 256.984375 231.285156 C 261.242188 230.503906 261.878906 229.867188 262.664062 225.609375 C 263.445312 229.867188 264.082031 230.503906 268.339844 231.285156 Z M 268.339844 231.285156 " fill-opacity="1" fill-rule="nonzero"/></g><g clip-path="url(#19103200f1)"><path fill="#ffffff" d="M 133.988281 231.285156 C 129.730469 232.070312 129.097656 232.707031 128.3125 236.964844 C 127.527344 232.707031 126.894531 232.070312 122.636719 231.285156 C 126.894531 230.503906 127.527344 229.867188 128.3125 225.609375 C 129.097656 229.867188 129.730469 230.503906 133.988281 231.285156 Z M 133.988281 231.285156 " fill-opacity="1" fill-rule="nonzero"/></g><g clip-path="url(#a9f583cedd)"><g clip-path="url(#4c3b0d5628)"><path fill="#000000" d="M 234.832031 160.488281 L 241.527344 163.488281 L 229.5 190.351562 L 222.804688 187.355469 Z M 234.832031 160.488281 " fill-opacity="1" fill-rule="nonzero"/></g></g><g clip-path="url(#023582231a)"><path fill="#000000" d="M 133.988281 168.074219 L 133.988281 175.414062 L 104.554688 175.414062 L 104.554688 168.074219 Z M 133.988281 168.074219 " fill-opacity="1" fill-rule="nonzero"/></g></svg>